<?xml version="1.0" encoding="utf-8"?>
<!-- Generator: Adobe Illustrator 16.0.0, SVG Export Plug-In . SVG Version: 6.00 Build 0)  -->
<!DOCTYPE svg PUBLIC "-//W3C//DTD SVG 1.1//EN" "http://www.w3.org/Graphics/SVG/1.1/DTD/svg11.dtd">
<svg version="1.1" id="Layer_1" xmlns="http://www.w3.org/2000/svg" xmlns:xlink="http://www.w3.org/1999/xlink" x="0px" y="0px"
	 width="72px" height="72px" viewBox="0 0 72 72" enable-background="new 0 0 72 72" xml:space="preserve">
<path fill="#bc012a" d="M65.489,15.351C54.085-0.936,31.638-4.894,15.351,6.51C-0.935,17.914-4.894,40.361,6.511,56.648
	s33.852,20.245,50.139,8.842C72.936,54.086,76.894,31.638,65.489,15.351z M53.552,61.066c-13.844,9.693-32.924,6.328-42.617-7.516
	s-6.33-32.923,7.514-42.616s32.926-6.33,42.619,7.514C70.76,32.291,67.396,51.373,53.552,61.066z"/>
<rect x="20.844" y="14.386" transform="matrix(0.8191 -0.5736 0.5736 0.8191 -21.3026 21.6786)" fill="#bc012a" width="5.76" height="60.465"/>
<rect x="45.418" y="-2.822" transform="matrix(0.8191 -0.5736 0.5736 0.8191 -6.9871 32.6649)" fill="#bc012a" width="5.761" height="60.465"/>
<rect x="9.159" y="28.205" transform="matrix(0.8192 -0.5736 0.5736 0.8192 -11.941 24.2959)" fill="#bc012a" width="46.8" height="5.76"/>
<rect x="16.041" y="38.034" transform="matrix(0.8192 -0.5736 0.5736 0.8192 -16.3345 30.0214)" fill="#bc012a" width="46.8" height="5.76"/>
<rect x="2.276" y="18.375" transform="matrix(0.8192 -0.5736 0.5736 0.8192 -7.548 18.5707)" fill="#bc012a" width="46.8" height="5.76"/>
<rect x="22.925" y="47.864" transform="matrix(0.8192 -0.5736 0.5736 0.8192 -20.7278 35.748)" fill="#bc012a" width="46.801" height="5.76"/>
</svg>
